<svg width="680" height="76" viewBox="0 0 680 76" fill="none" xmlns="http://www.w3.org/2000/svg">
<path opacity="0.7" d="M10 50H35C35.3333 48.8333 36.7 46.5 39.5 46.5C42.3 46.5 44.3333 48.8333 45 50H47.5L54 11L57.5 65L62 50H72C73.3333 48 77.1 44.3 81.5 45.5C85.9 46.7 89.5 51 93 50H117C117.333 48.8333 118.7 46.5 121.5 46.5C124.3 46.5 126.333 48.8333 127 50H129.5L136 11L139.5 65L144 50H154C155.333 48 159.1 44.3 163.5 45.5C167.9 46.7 172 50.5 175 50H200C200.333 48.8333 201.7 46.5 204.5 46.5C207.3 46.5 209.333 48.8333 210 50H212.5L219 11L222.5 65L227 50H237C238.333 48 242.1 44.3 246.5 45.5C250.9 46.7 254.5 51 258 50H282C282.333 48.8333 283.7 46.5 286.5 46.5C289.3 46.5 291.333 48.8333 292 50H294.5L301 11L304.5 65L309 50H319C320.333 48 324.1 44.3 328.5 45.5C332.9 46.7 336 50.5 339 50H364C364.333 48.8333 365.7 46.5 368.5 46.5C371.3 46.5 373.333 48.8333 374 50H376.5L383 11L386.5 65L391 50H401C402.333 48 406.1 44.3 410.5 45.5C414.9 46.7 418.5 51 422 50H446C446.333 48.8333 447.7 46.5 450.5 46.5C453.3 46.5 455.333 48.8333 456 50H458.5L465 11L468.5 65L473 50H483C484.333 48 488.1 44.3 492.5 45.5C496.9 46.7 501 50.5 504 50H529C529.333 48.8333 530.7 46.5 533.5 46.5C536.3 46.5 538.333 48.8333 539 50H541.5L548 11L551.5 65L556 50H566C567.333 48 571.1 44.3 575.5 45.5C579.9 46.7 583.5 51 587 50H611C611.333 48.8333 612.7 46.5 615.5 46.5C618.3 46.5 620.333 48.8333 621 50H623.5L630 11L633.5 65L638 50H648C649.333 48 653.1 44.3 657.5 45.5C661.9 46.7 667 50 669 51.5" stroke="#D5E8F0" stroke-width="2"/>
</svg>
