<svg viewBox="0 0 63 63" fill="none" xmlns="http://www.w3.org/2000/svg">
<path fill-rule="evenodd" clip-rule="evenodd" d="M47.289 19.2632C46.1378 17.7674 44.7819 16.4373 43.2631 15.3149V7.89473H43.2136C42.6552 3.46855 37.4473 -2.7722e-07 31.1053 0C24.7632 2.7722e-07 19.5553 3.46855 18.9969 7.89473H18.9474V15.5531C17.5561 16.6239 16.3081 17.8719 15.2373 19.2632L7.89473 19.2632V19.3127C3.46855 19.8711 5.54439e-07 25.079 0 31.4211C-5.54439e-07 37.7631 3.46855 42.971 7.89473 43.5294V43.5789H14.9992C16.1216 45.0976 17.4516 46.4536 18.9474 47.6048V55.1053H18.9969C19.5553 59.5314 24.7632 63 31.1053 63C37.4473 63 42.6552 59.5314 43.2136 55.1053H43.2631V47.8429C44.8879 46.6422 46.3264 45.2037 47.5272 43.5789H55.1053V43.5294C59.5314 42.971 63 37.7631 63 31.4211C63 25.079 59.5314 19.8711 55.1053 19.3127V19.2632H47.289ZM43.1501 47.9259C39.8142 50.3558 35.7061 51.7895 31.2632 51.7895C26.6583 51.7895 22.4132 50.2495 19.0147 47.6564C19.6196 51.7613 24.2282 55.0141 30 55.3856V55.7368H30.0108C29.4351 56.1004 29.0526 56.7424 29.0526 57.4737C29.0526 58.6073 29.9716 59.5263 31.1053 59.5263C32.2389 59.5263 33.1579 58.6073 33.1579 57.4737C33.1579 56.7424 32.7755 56.1004 32.1997 55.7368H32.2105V55.3856C37.8554 55.0223 42.3877 51.903 43.1501 47.9259ZM32.2105 7.61437C37.9409 7.98322 42.5248 11.1921 43.1822 15.2554C39.8406 12.8113 35.7204 11.3684 31.2632 11.3684C26.6478 11.3684 22.3937 12.9155 18.9913 15.5194C19.4886 11.3318 24.1461 7.99118 30 7.61437V7.26316H30.0108C29.4351 6.89959 29.0526 6.25762 29.0526 5.52633C29.0526 4.39269 29.9716 3.47369 31.1053 3.47369C32.2389 3.47369 33.1579 4.39269 33.1579 5.52632C33.1579 6.25762 32.7755 6.89959 32.1997 7.26316H32.2105V7.61437ZM31.2632 40.421C36.1465 40.421 40.1053 36.4623 40.1053 31.5789C40.1053 26.6956 36.1465 22.7368 31.2632 22.7368C26.3798 22.7368 22.4211 26.6956 22.4211 31.5789C22.4211 36.4623 26.3798 40.421 31.2632 40.421ZM14.8882 43.4274C12.4753 40.0984 11.0526 36.0048 11.0526 31.5789C11.0526 26.9873 12.5838 22.7533 15.1635 19.3597C11.1438 20.0708 7.98044 24.6287 7.61437 30.3158H7.26316V30.3266C6.89959 29.7509 6.25762 29.3684 5.52632 29.3684C4.39269 29.3684 3.47369 30.2874 3.47369 31.4211C3.47369 32.5547 4.39269 33.4737 5.52632 33.4737C6.25762 33.4737 6.89959 33.0913 7.26316 32.5155V32.5263H7.61437C7.97204 38.083 11.0002 42.5616 14.8882 43.4274ZM55.3856 32.5263C55.0114 38.3397 51.7144 42.9731 47.5676 43.524C50.0233 40.1778 51.4737 36.0478 51.4737 31.5789C51.4737 26.9554 49.9211 22.6945 47.3089 19.2891C51.5766 19.6777 55.0037 24.3821 55.3856 30.3158H55.7368V30.3266C56.1004 29.7508 56.7424 29.3684 57.4737 29.3684C58.6073 29.3684 59.5263 30.2874 59.5263 31.421C59.5263 32.5547 58.6073 33.4737 57.4737 33.4737C56.7424 33.4737 56.1004 33.0913 55.7368 32.5155V32.5263H55.3856Z" fill="#D5E8F0"/>
</svg>
