<svg width="13" height="13" viewBox="0 0 13 13" fill="none" xmlns="http://www.w3.org/2000/svg">
<g clip-path="url(#clip0_882_626)">
<path d="M10.9688 0.8125H2.03125C1.70803 0.8125 1.39801 0.940897 1.16945 1.16945C0.940886 1.39801 0.8125 1.70803 0.8125 2.03125V8.53125C0.8125 8.85447 0.940897 9.16449 1.16945 9.39305C1.39801 9.62161 1.70803 9.75 2.03125 9.75H2.84375V11.7812C2.84413 11.8614 2.86829 11.9397 2.91311 12.0063C2.95792 12.0728 3.02144 12.1245 3.09563 12.155C3.14383 12.1777 3.19672 12.1889 3.25 12.1875C3.358 12.1881 3.46176 12.1457 3.53844 12.0697L5.85407 9.75005H10.9687C11.2919 9.75005 11.6019 9.62166 11.8305 9.39311C12.0591 9.16455 12.1874 8.85453 12.1874 8.5313V2.0313C12.1874 1.70808 12.0591 1.39806 11.8305 1.1695C11.6019 0.94094 11.2919 0.812554 10.9687 0.812554L10.9688 0.8125ZM6.5 2.4375C6.60774 2.4375 6.71108 2.48028 6.78726 2.55649C6.86347 2.63266 6.90625 2.736 6.90625 2.84375C6.90625 2.9515 6.86347 3.05483 6.78726 3.13101C6.71109 3.20722 6.60775 3.25 6.5 3.25C6.39225 3.25 6.28892 3.20722 6.21274 3.13101C6.13653 3.05484 6.09375 2.9515 6.09375 2.84375C6.09375 2.736 6.13653 2.63267 6.21274 2.55649C6.28891 2.48028 6.39225 2.4375 6.5 2.4375ZM7.3125 8.125H5.6875C5.54236 8.125 5.40825 8.04756 5.33567 7.92188C5.26309 7.79619 5.26309 7.64131 5.33567 7.51562C5.40824 7.38994 5.54234 7.3125 5.6875 7.3125H6.09375V4.875H5.6875C5.54236 4.875 5.40825 4.79756 5.33567 4.67188C5.26309 4.54619 5.26309 4.39131 5.33567 4.26562C5.40824 4.13994 5.54234 4.0625 5.6875 4.0625H6.5C6.60774 4.0625 6.71108 4.10528 6.78726 4.18149C6.86347 4.25766 6.90625 4.361 6.90625 4.46875V7.3125H7.3125C7.45764 7.3125 7.59175 7.38994 7.66433 7.51562C7.73691 7.64131 7.73691 7.79619 7.66433 7.92188C7.59176 8.04756 7.45766 8.125 7.3125 8.125Z" fill="#D5E8F0"/>
</g>
<defs>
<clipPath id="clip0_882_626">
<rect width="13" height="13" fill="white"/>
</clipPath>
</defs>
</svg>
