<svg width="12" height="13" viewBox="0 0 12 13" fill="none" xmlns="http://www.w3.org/2000/svg">
<path fill-rule="evenodd" clip-rule="evenodd" d="M6.3817 4.09683V5.36951C6.64822 4.96354 7.01558 4.63373 7.44783 4.41235C7.88007 4.19097 8.36239 4.08561 8.84757 4.10658C11.4387 4.10658 11.9989 5.7265 11.9989 7.83389V12.1244H9.59903V8.32061C9.59903 7.41316 9.41604 6.24622 8.00312 6.24622C6.63294 6.24622 6.39895 7.23392 6.39895 8.25311V12.1244H4.00658V4.09683H6.3817ZM2.39941 2.07944C2.39912 2.31718 2.32864 2.54954 2.19683 2.74739C2.06502 2.94524 1.87773 3.09978 1.65845 3.19163C1.43926 3.28274 1.19791 3.30657 0.965137 3.26009C0.732358 3.21362 0.51867 3.09893 0.351268 2.93064C0.183551 2.76225 0.0693689 2.54802 0.0230796 2.3149C-0.0232098 2.08178 0.000461003 1.84018 0.0911147 1.62048C0.181768 1.40078 0.335358 1.21279 0.532569 1.08014C0.72978 0.9475 0.961807 0.876127 1.19947 0.875C1.35743 0.874999 1.51383 0.906185 1.65971 0.966768C1.80559 1.02735 1.93807 1.11614 2.04955 1.22804C2.16104 1.33994 2.24933 1.47276 2.30937 1.61886C2.3694 1.76496 2.4 1.92148 2.39941 2.07944Z" fill="#D5E8F0"/>
<path d="M2.39987 4.10547H0V12.1233H2.39987V4.10547Z" fill="#D5E8F0"/>
</svg>
