<svg width="10" height="10" viewBox="0 0 10 10" fill="none" xmlns="http://www.w3.org/2000/svg">
<path d="M5 0.5C5.59674 0.5 6.16903 0.737053 6.59099 1.15901C7.01295 1.58097 7.25 2.15326 7.25 2.75C7.25 3.34674 7.01295 3.91903 6.59099 4.34099C6.16903 4.76295 5.59674 5 5 5C4.40326 5 3.83097 4.76295 3.40901 4.34099C2.98705 3.91903 2.75 3.34674 2.75 2.75C2.75 2.15326 2.98705 1.58097 3.40901 1.15901C3.83097 0.737053 4.40326 0.5 5 0.5ZM5 6.125C7.48625 6.125 9.5 7.13188 9.5 8.375V9.5H0.5V8.375C0.5 7.13188 2.51375 6.125 5 6.125Z" fill="#D5E8F0"/>
</svg>
